inDegrees=no
num_controls=7
num_derivatives=13
num_iterations=65
num_multipliers=7
num_parameters=0
num_slacks=7
num_states=26
objective=0.329802
objective_accelerations=0.038033
objective_balance=0.003187
objective_effort=0.025884
objective_height=0.257097
objective_ligament=0.005600
solver_duration=986.554610
status=Solve_Succeeded
success=true
DataType=double
version=3
OpenSimVersion=4.5
endheader
time	/jointset/ground_pelvis/pelvis_tilt/value	/jointset/ground_pelvis/pelvis_tx/value	/jointset/ground_pelvis/pelvis_ty/value	/jointset/hip_l/hip_flexion_l/value	/jointset/hip_l/hip_adduction_l/value	/jointset/hip_l/hip_rotation_l/value	/jointset/back/lumbar_extension/value	/jointset/patellofemoral_l/patellar_flexion_l/value	/jointset/knee_l/knee_flexion_l/value	/jointset/knee_l/knee_adduction_l/value	/jointset/knee_l/knee_rotation_l/value	/jointset/ankle_l/ankle_angle_l/value	/jointset/subtalar_l/subtalar_angle_l/value	/jointset/ground_pelvis/pelvis_tilt/speed	/jointset/ground_pelvis/pelvis_tx/speed	/jointset/ground_pelvis/pelvis_ty/speed	/jointset/hip_l/hip_flexion_l/speed	/jointset/hip_l/hip_adduction_l/speed	/jointset/hip_l/hip_rotation_l/speed	/jointset/back/lumbar_extension/speed	/jointset/patellofemoral_l/patellar_flexion_l/speed	/jointset/knee_l/knee_flexion_l/speed	/jointset/knee_l/knee_adduction_l/speed	/jointset/knee_l/knee_rotation_l/speed	/jointset/ankle_l/ankle_angle_l/speed	/jointset/subtalar_l/subtalar_angle_l/speed	/forceset/tau_hip_flexion_l	/forceset/tau_hip_adduction_l	/forceset/tau_hip_rotation_l	/forceset/tau_knee_flexion_l	/forceset/tau_ankle_angle_l	/forceset/tau_subtalar_angle_l	/forceset/tau_lumbar_extension	lambda_cid13_p0	lambda_cid13_p1	lambda_cid13_p2	lambda_cid13_p3	lambda_cid13_p4	lambda_cid13_p5	lambda_cid14_p0	/jointset/ground_pelvis/pelvis_tilt/accel	/jointset/ground_pelvis/pelvis_tx/accel	/jointset/ground_pelvis/pelvis_ty/accel	/jointset/hip_l/hip_flexion_l/accel	/jointset/hip_l/hip_adduction_l/accel	/jointset/hip_l/hip_rotation_l/accel	/jointset/back/lumbar_extension/accel	/jointset/patellofemoral_l/patellar_flexion_l/accel	/jointset/knee_l/knee_flexion_l/accel	/jointset/knee_l/knee_adduction_l/accel	/jointset/knee_l/knee_rotation_l/accel	/jointset/ankle_l/ankle_angle_l/accel	/jointset/subtalar_l/subtalar_angle_l/accel	gamma_cid13_p0	gamma_cid13_p1	gamma_cid13_p2	gamma_cid13_p3	gamma_cid13_p4	gamma_cid13_p5	gamma_cid14_p0
0.5	-0.2558287216302373	-0.03247326533178637	0.5538027482902834	1.680692182688539	-0.3330319557365246	0.1915512677527493	-0.4361787754996942	1.662353220311526	1.662353220311527	0.07669364203402697	-0.1742149866374585	0.4245302621737357	0.2637291820982708	-0.3542731350380427	-0.06300354281190859	-1.05446809454049	3.148866036146631	0.1992884970213294	0.9419289657275488	-0.01457318058247236	2.81046024692544	2.810460246925435	0.3579691201045448	0.002062319473530415	0.261819497831939	0.4739195206944582	-0.1750327328632962	-0.008707103992415432	-0.01017417616945284	-0.3962613151070387	0.06618183845587433	0.02584470750647221	0.1840624814737782	-9.774405837454331	-1.851339611580743	-8.737233648131394	-5.833844642494088	-542.5135838959967	-112.4303709953078	-0.02371334991665509	4.081641942290473	1.353971751280898	1.941606836006116	-8.776192032445524	0.9311525777069379	-0.4817316378090503	0.9154651252423431	-7.633302781337949	-7.63330278133801	-1.201668242991123	0.02511373943361807	-3.431609725834276	-0.2624812129815092	2.546798648747808e-07	-2.089350217094781e-06	-2.383358206722174e-06	-1.063079943328933e-06	3.578656548262067e-08	-4.929540991752774e-06	3.910776823277223e-07
0.51	-0.2591672774241613	-0.03303662494011294	0.5433578020647518	1.71173850108319	-0.3309927898936724	0.2009431222162699	-0.4362828100587295	1.690074475913972	1.690074475913993	0.08021538976673682	-0.1741939541358498	0.4269783644360581	0.2684546250464037	-0.3133440100357061	-0.049769115770826	-1.034230990484339	3.059850802175604	0.2085229102474008	0.9363610540555706	-0.006745136221663169	2.733585394048291	2.73358539404826	0.346322955495711	0.002137953216765106	0.2280037583312212	0.4711504775032224	-0.1773247472599337	-0.009671013020553244	-0.01077507943082981	-0.4042719737603998	0.06756096044133084	0.02526162259251108	0.1856401691421735	-9.916371666041524	-1.245879631275365	-9.207693734902909	-5.113146772801382	-548.2808243622403	-114.5939740586273	-0.02352511945482479	4.112623881199172	1.292858765669844	2.108296509670327	-9.046227990076012	0.9166198266126436	-0.6063296516684259	0.6397633420470837	-7.745481195449811	-7.745481195453652	-1.154601839078922	-0.002790679667454256	-3.326168085301563	-0.2863147114446988	2.544656177125604e-07	-1.848672052397002e-06	-2.190691401684159e-06	-1.010143336208599e-06	5.431823844117246e-08	-4.763438254754737e-06	3.916378172247664e-07
0.52	-0.2620937267476611	-0.03347070416099902	0.533123933743632	1.741878259356	-0.3288618730922485	0.2102768958191137	-0.4363239063239997	1.717020802056737	1.717020802056777	0.08361897359950714	-0.1741724810710922	0.4290943868987509	0.2731519377947741	-0.2718518409536173	-0.03714746532380964	-1.012252513658179	2.967554011778787	0.21763868873569	0.9303127935925432	-0.00198552183898249	2.655474354989283	2.655474354989228	0.3343363401169016	0.002150432102566989	0.1954035379060615	0.4682934807419835	-0.1796167616565882	-0.01063492204869718	-0.01137598269221224	-0.4122826324137629	0.06894008242678812	0.02467853767854058	0.1872178568105518	-10.08195885867119	-0.6385633327152807	-9.675847798266052	-4.356224245135396	-554.2872425092677	-116.9002586075563	-0.02332030952656898	4.194250758240971	1.23141643246764	2.289881390008096	-9.432503317603565	0.9074256301505017	-0.577801396018927	0.3017791296169349	-7.880540017709782	-7.880540017709264	-1.269758396986229	0.01248276794704499	-3.188505910722685	-0.2800719269821652	2.407034653813293e-07	-1.592908447757605e-06	-1.852338965871573e-06	-9.409591484536205e-07	5.99412965998153e-08	-4.296523695113904e-06	3.471926424033374e-07
0.53	-0.2646041180233567	-0.03378151790190793	0.5231181115582593	1.77108004391536	-0.3266406789658037	0.2195481532289432	-0.4363300524628403	1.74318048829996	1.743180488299991	0.08690048176400951	-0.1741510026029097	0.4308914172035849	0.2778204812936089	-0.2302744515370947	-0.02510430054431867	-0.988663956055871	2.872366715263967	0.2265421457932609	0.9238341159046961	0.0004846955544245054	2.576320461284801	2.576320461284839	0.321915118022518	0.002138221377220815	0.1643045545811463	0.4654179326441497	-0.1816159022085871	-0.01171195867545677	-0.01206028747684776	-0.419235273200246	0.07040504054357703	0.02403240678276722	0.188684850237625	-10.16722644317703	-0.03090051274828353	-10.12923965765915	-3.864245441430778	-559.4190331328304	-119.0118200951377	-0.02309298110972256	4.132255658356508	1.177232923698206	2.430550628389264	-9.627280698760693	0.8733036073029539	-0.6984895106868272	0.1789032690378317	-7.954243671986046	-7.954243671972569	-1.235717143112718	-0.009601741960811355	-3.025305431387911	-0.2904626807621928	2.250738913330618e-07	-1.319226032457515e-06	-1.469929813026976e-06	-8.600019954621086e-07	6.514012891319514e-08	-3.671961333100016e-06	2.860457664451903e-07
0.54	-0.2667001808798846	-0.03397460671042019	0.5133556164855189	1.799316867933506	-0.3243321506960344	0.2287515061507888	-0.4363196443829272	1.768544349681105	1.768544349681126	0.09005629510207575	-0.1741299519918142	0.4323865154975667	0.2824604360255495	-0.1889861571206329	-0.01360247884447438	-0.9635870911317029	2.774561903535564	0.2351055174005358	0.9167318959960793	0.001325321941232705	2.49630938257357	2.496309382573695	0.3091973748302029	0.002064860684461582	0.1350171357357512	0.4625757273631882	-0.1836150427605874	-0.01278899530221957	-0.01274459226148971	-0.4261879139867307	0.07186999866036486	0.02338627588698799	0.1901518436646978	-10.27515759495856	0.5773926305943373	-10.57892039620947	-3.344148809784793	-564.792011500535	-121.2604119873393	-0.02284789471198357	4.13643175822889	1.123147816538289	2.587542854380134	-9.956006360320201	0.8394085400913137	-0.7025098401728759	-0.02413907170279022	-8.051977019059844	-8.051977019060406	-1.329062616572521	0.0002527744644272474	-2.826193014818724	-0.2734033636077388	2.073782336829669e-07	-1.025718550043466e-06	-1.038777058359726e-06	-7.66019434123794e-07	6.986960497224146e-08	-2.872980125907427e-06	2.064204126336526e-07
